<?xml version="1.0" encoding="UTF-8"?>
<svg id="Capa_2" data-name="Capa 2" xmlns="http://www.w3.org/2000/svg" viewBox="0 0 79.5 97.06">
  <defs>
    <style>
      .cls-1 {
        fill: #1b1464;
      }
    </style>
  </defs>
  <g id="Capa_1-2" data-name="Capa 1">
    <g>
      <path class="cls-1" d="M57.07,91.05l-17.52-4.68-12,3.14L0,96.87v-41.42s13.61,3.15,13.61,3.15c-2.37-1.68-4.57-3.24-6.49-5.29-2.35-2.46-4.23-5.29-5.47-8.45C-1.21,37.58.01,29.86,4.29,23.42c3.51-5.3,8.66-9.4,14.26-12.34,7.34-3.85,15.57-5.81,23.85-5.53,6.15.21,12.18,1.63,17.73,4.28,5.83,2.78,10.86,6.89,14.05,12.54,1.66,2.94,2.58,6.15,2.72,9.53.2,4.74-1.31,9.67-3.7,13.76-3.65,6.25-9.13,11.11-15.63,14.32l3.61-.69,18.33-4.04v41.8s-22.43-6.01-22.43-6.01ZM54.82,58.62c4.86-1.97,9.19-4.98,12.67-8.83,3.51-3.9,6.15-8.65,7.09-13.82,1.12-6.13-.95-11.89-4.91-16.57-6.46-7.62-17.29-11.57-27.12-11.81-.85-.07-1.57-.04-2.44,0-9.7.36-19.17,3.71-26.88,9.62-2.28,1.74-4.29,3.74-6.03,6-2.13,2.76-3.63,5.87-4.48,9.26-.74,2.96-.76,5.93-.02,8.89.92,3.75,2.8,7.16,5.42,10s6.05,5.29,9.7,7.01c6.13,2.89,13.36,4.08,20.12,3.82,5.78-.22,11.47-1.37,16.89-3.56ZM72.72,91.54c2.11.02,2.92-1.82,3.05-3.74s.14-3.98,0-5.99c-.13-1.82-.58-3.55-1.52-5.1l-1.92-2.6-1.63-2.32c-.57-1-.97-2.05-.96-3.21v-2.6c0-.76.41-1.32,1.18-1.38.25-.02.54-.08.76.11.14.12.32.39.32.66l.02,5.24h3.26c.2,0,.37-.05.59-.11l-.02-6.69c0-.55-.06-1.06-.21-1.58-.31-1.06-1.26-1.69-2.39-1.68-1.63.02-3.24.37-4.79.89-1.07.36-1.85,1.14-2.22,2.19-.24.68-.41,1.37-.41,2.11v3.78c.11,1.67.6,3.2,1.41,4.65l1.87,2.74,1.62,2.41c.67,1.22,1.06,2.52,1.06,3.92v3.15c-.01.34-.14.79-.49.92-.44.15-1.04.06-1.41-.21-.4-.29-.44-.8-.48-1.28v-6.51s-3.71-.11-3.71-.11l.03,7.18c.13,1.87.6,3.7,2.47,4.3,1.45.47,2.95.87,4.51.88ZM13.08,76.21c.24-.67.33-1.33.33-2.03l-.02-8.53c0-1.58-.99-2.88-2.39-3.49-.69-.3-1.36-.44-2.1-.58l-4.97-.93v30.93s4.06-1,4.06-1v-11.37s2.1-.35,2.1-.35c1.39-.36,2.49-1.25,2.99-2.65ZM63.31,76.69v-3.6s-2.75.09-2.75.09v-6.52s3.56-.57,3.56-.57v-3.83s-7.21,1.48-7.21,1.48v23.94s7.05,1.81,7.05,1.81v-4.09s-3.4-.7-3.4-.7v-7.95s2.75-.04,2.75-.04ZM23.73,86.62l-.02-9.19c-.06-1.09-.64-1.9-1.72-2.27,1.11-.46,1.6-1.52,1.6-2.67v-5.85c-.02-1.33-.78-2.51-2.14-2.77l-6.48-1.24v26.15s3.36-.79,3.36-.79v-11.17s1.21,0,1.21,0c.54,0,.88.41.94.96v9.64s3.26-.8,3.26-.8ZM28.74,85.4v-20.21s-3.11-.57-3.11-.57v21.53s3.11-.75,3.11-.75ZM55.51,83.49l-2.74-.54v-18.34s-3.26.62-3.26.62v20.51s5.99,1.53,5.99,1.53v-3.78ZM37.8,66.88l-2.46-.42.02,2.42-.02,5.71c0,.05-.13.06-.16.03-.04-.04-.03-.13-.05-.21l-2.03-8.45-2.48-.43v19.39s2.54-.61,2.54-.61l.04-9.29,2.22,8.73,2.37-.54v-14.5s0-1.84,0-1.84ZM44.83,81.07c0,.31-.24.5-.51.47l-.74-.09c-.45-.05-.66-.37-.66-.82v-10.83c.01-.69.87-.88,1.62-.74.18.13.23.36.26.59v2.56s2.87-.08,2.87-.08v-3.58c0-.4-.06-.78-.16-1.16-.3-1.03-1.31-1.53-2.35-1.33l-3.44.68c-1.23.24-1.99,1.32-1.99,2.54l.04,12.22c0,.98.65,1.92,1.54,2.14l4.03.98c.99.24,1.97-.37,2.14-1.31l.19-1.07v-7.46s-3.66,0-3.66,0v2.98s.82.05.82.05v3.25Z"/>
      <path class="cls-1" d="M27.18,3.84c-4,.3-7.79,2.66-9.02,6.47-.11.34-.3.55-.66.53-.28-.02-.55-.26-.56-.62-.09-3.37,1.59-6.58,4.41-8.41,2.31-1.5,5.09-1.91,7.68-.95,1.29.48,2.4,1.32,3.12,2.47.16.26.09.59-.03.81s-.44.38-.74.29c-1.35-.44-2.72-.69-4.21-.58Z"/>
      <path class="cls-1" d="M59.34,7.62c-1.47-2.57-4.21-4.2-7.19-4.2-1.43,0-2.7.38-3.94,1-.29.15-.66.1-.88-.12-.18-.19-.3-.57-.13-.89,1.79-3.3,5.79-4.34,9.07-2.52,1.99,1.1,3.46,2.93,4.12,5.1.17.57.26,1.13.14,1.69-.06.29-.38.36-.6.36-.28,0-.43-.14-.59-.41Z"/>
      <path class="cls-1" d="M10.15,30.61c-.58,1.49-.6,3.18.5,4.34,1.46,1.54,4.06,1.05,5.96.17,1.27-.59,2.41-1.29,3.54-2.11l3.73-2.73c2.94-2.15,6.1-4.12,9.79-4.42,4.99-.4,9.73,1.9,12.5,6.07.14-2.38.99-4.44,2.63-6.01,1.74-1.59,4.05-2.3,6.4-2,1.52.17,2.92.61,4.31,1.23l3.12,1.4c1.26.57,2.85,1.09,4.03.46.55-.3.86-.87.98-1.48.34-1.72-.85-2.64-.42-2.93.5-.34,2.02,1.34,2.61,2.22,1.26,1.91,1.88,4.08,2.01,6.38.25,4.33-1.78,8.43-5.4,10.82-5.83,3.85-13.88,2.82-18-3.09-.08,1.6-.33,2.95-.87,4.32-.83,2.1-2.17,3.88-3.83,5.42-4.29,3.84-10.48,5.52-16.17,5.6-6.02.09-12.48-1.75-16.87-5.96-2.5-2.4-4.1-5.5-4.37-8.96-.18-2.31.24-4.59,1.3-6.62.51-.99,1.16-1.84,2.06-2.44.12-.08.27-.1.34-.06.12.06.19.25.13.39Z"/>
      <path class="cls-1" d="M28.89,23.4c-2.85-.39-4.37-5.31-2.56-7.92.77-1.1,2.15-1.41,3.3-.7,1.82,1.14,2.59,3.77,2.17,5.93-.29,1.51-1.35,2.9-2.91,2.68Z"/>
      <path class="cls-1" d="M55.65,19.5c-.65.72-1.59.88-2.42.43-2.21-1.19-2.86-4.98-1.46-6.75.61-.77,1.58-1,2.47-.59,2.23,1.03,3.03,5.11,1.4,6.9Z"/>
      <path class="cls-1" d="M10.06,74.05c0,.82-.63,1.41-1.34,1.44l-.72.03v-10.4s.67.14.67.14c.85.17,1.42.8,1.41,1.68l-.02,7.12Z"/>
      <path class="cls-1" d="M20.44,72.95c0,.62-.39,1.08-.93,1.08h-1.18s.02-7.46.02-7.46l1.35.25c.42.08.75.58.75,1.06v5.07Z"/>
    </g>
  </g>
</svg>